<?xml version="1.0" standalone="no"?><!DOCTYPE svg PUBLIC "-//W3C//DTD SVG 1.1//EN" "http://www.w3.org/Graphics/SVG/1.1/DTD/svg11.dtd"><svg t="1692696093536" class="icon" viewBox="0 0 1024 1024" version="1.1" xmlns="http://www.w3.org/2000/svg" p-id="6950" xmlns:xlink="http://www.w3.org/1999/xlink" width="200" height="200"><path d="M512 512.002m-511.998 0a511.998 511.998 0 1 0 1023.996 0 511.998 511.998 0 1 0-1023.996 0Z" fill="#323232" p-id="6951"></path><path d="M511.998 512.002m-407.00441 0a407.00441 407.00441 0 1 0 814.00882 0 407.00441 407.00441 0 1 0-814.00882 0Z" fill="#494A4A" p-id="6952"></path><path d="M733.449135 597.059668c-45.689822-100.569607-132.931481-210.975176-194.151242-273.322933a208.827184 208.827184 0 0 0-7.915969-8.381967c-79.055691-79.053691-206.465193-80.281686-287.020879-3.679985-5.691978-5.02398-11.235956-10.453959-16.375936-16.273937 13.333948-16.971934 12.207952-41.601837-3.433986-57.245776-16.889934-16.889934-44.273827-16.889934-61.163761 0-16.885934 16.889934-16.889934 44.273827 0 61.163761 15.563939 15.565939 40.019844 16.745935 56.983777 3.625986 5.839977 5.15198 11.281956 10.707958 16.319936 16.417935-76.377702 80.565685-75.081707 207.803188 3.897985 286.78488 1.149996 1.147996 2.311991 2.277991 3.479987 3.393987l-0.03 0.054c61.31576 61.31976 174.685318 151.811407 277.760915 198.717224-3.983984 26.515896 3.911985 70.625724 83.917672 111.229565-18.277929-14.135945-25.933899-56.679779-8.209968-85.093668 2.48999 0.535998 4.967981 1.039996 7.419971 1.475995l0.004-0.004a129.415494 129.415494 0 0 0 37.827852 3.695985s0.032 0 0.046-0.004a128.819497 128.819497 0 0 0 16.999934-1.979992l0.299998-0.054a130.355491 130.355491 0 0 0 10.949958-2.54599c0.165999-0.046 0.329999-0.09 0.495998-0.139999a127.313503 127.313503 0 0 0 9.725962-3.163988 54.713786 54.713786 0 0 0 5.925977 7.039973 54.673786 54.673786 0 0 0 8.215968 6.745973l-0.002 0.004 0.047999 0.032a54.253788 54.253788 0 0 0 8.161968 4.479983c24.239905 11.269956 56.527779 10.409959 68.635732 8.045968a13.503947 13.503947 0 0 0 7.281972-3.761985 13.499947 13.499947 0 0 0 3.963984-9.609963c1.807993-12.359952 2.041992-37.913852-5.761977-59.483767a54.037789 54.037789 0 0 0-13.749946-23.249909 54.795786 54.795786 0 0 0-7.053973-5.937977c0.427998-1.155995 0.835997-2.315991 1.231995-3.479987 0.124-0.363999 0.249999-0.721997 0.371999-1.085995 0.543998-1.651994 1.055996-3.319987 1.533994-4.987981 0.086-0.307999 0.163999-0.617998 0.249999-0.925996a130.53549 130.53549 0 0 0 1.401994-5.563979c0.351999-1.523994 0.675997-3.053988 0.967997-4.585982 0.034-0.175999 0.072-0.347999 0.105999-0.527998 0.319999-1.709993 0.597998-3.429987 0.847997-5.147979 0.062-0.417998 0.114-0.835997 0.167999-1.249996a124.059515 124.059515 0 0 0 0.487998-4.093984c0.044-0.433998 0.094-0.871997 0.132-1.303995 0.159999-1.725993 0.291999-3.457986 0.383998-5.187979-0.002-0.024 0.004-0.042 0.002-0.066h-0.002a129.439494 129.439494 0 0 0-4.505982-41.191839c-0.261999-1.335995-0.549998-2.68799-0.835997-4.035984 28.407889-17.437932 70.653724-9.757962 84.729669 8.441967-40.365842-79.549689-84.201671-87.807657-110.765567-83.979672z" fill="#323232" p-id="6953"></path><path d="M791.07491 701.845258a54.021789 54.021789 0 0 0-13.751946-23.249909c-21.203917-21.203917-55.591783-21.203917-76.7917 0-21.207917 21.207917-21.207917 55.593783-0.002 76.7957a54.431787 54.431787 0 0 0 8.215967 6.745974l-0.004 0.004 0.05 0.032a54.079789 54.079789 0 0 0 8.163968 4.479982c24.237905 11.269956 56.523779 10.409959 68.633732 8.045969a13.509947 13.509947 0 0 0 11.245956-13.371948c1.807993-12.357952 2.043992-37.911852-5.759977-59.481768z" fill="#F79D22" p-id="6954"></path><path d="M772.666982 711.357221a31.647876 31.647876 0 0 0-8.045969-13.605947c-12.409952-12.409952-32.531873-12.409952-44.937824-0.004-12.409952 12.409952-12.407952 32.531873 0 44.941825a32.211874 32.211874 0 0 0 4.805981 3.945984l-0.002 0.004 0.032 0.016c1.527994 1.023996 3.127988 1.893993 4.775981 2.62199 14.183945 6.597974 33.075871 6.093976 40.163843 4.709982 1.559994-0.269999 3.055988-0.999996 4.259984-2.203992a7.903969 7.903969 0 0 0 2.319991-5.621978c1.055996-7.229972 1.193995-22.187913-3.371987-34.803864z" fill="#E65439" p-id="6955"></path><path d="M547.94586 235.63908l-187.487268 102.889598-0.205999 0.203999-102.887598 187.487267c78.555693 78.557693 242.551053 205.015199 360.88659 226.331116l0.004-0.004c42.433834 10.627958 89.223651-0.631998 122.407522-33.815868 33.983867-33.983867 44.957824-82.237679 32.983871-125.471509-23.01791-118.069539-147.861422-279.780907-225.701118-357.620603z" fill="#E8E9EC" p-id="6956"></path><path d="M399.30644 377.374526m-205.621197 0a205.621197 205.621197 0 1 0 411.242394 0 205.621197 205.621197 0 1 0-411.242394 0Z" fill="#E65439" p-id="6957"></path><path d="M399.30644 377.374526m-205.621197 0a205.621197 205.621197 0 1 0 411.242394 0 205.621197 205.621197 0 1 0-411.242394 0Z" fill="#E65439" p-id="6958"></path><path d="M306.558803 284.630888m-19.749923 0a19.749923 19.749923 0 1 0 39.499845 0 19.749923 19.749923 0 1 0-39.499845 0Z" fill="#BE3D27" p-id="6959"></path><path d="M656.083437 756.243046c30.76388-1.523994 61.083761-14.015945 84.57967-37.511854 23.421909-23.421909 35.90986-53.621791 37.495853-84.28167-56.21378-91.295643-152.539404-202.32321-216.151155-266.620959a355.710611 355.710611 0 0 0-7.989969-8.265968c-32.707872-32.707872-69.301729-56.483779-104.407592-69.959726l-89.151652 48.925809-0.205999 0.203999-48.75581 88.847653c13.469947 35.135863 37.259854 71.76572 69.999727 104.507592 1.147996 1.147996 2.303991 2.285991 3.463986 3.413986l-0.012 0.036c63.437752 63.439752 177.609306 163.081363 271.134941 220.705138z" fill="#CDCCCA" p-id="6960"></path><path d="M322.360741 300.432826c-47.639814 47.639814-21.163917 151.355409 59.135769 231.655096 1.147996 1.147996 2.303991 2.285991 3.463986 3.413986l-0.012 0.036c13.551947 13.553947 29.425885 28.769888 46.921817 44.867825 41.303839-6.593974 80.991684-25.791899 112.831559-57.631775 31.783876-31.785876 50.971801-71.381721 57.595775-112.61356-14.309944-15.549939-27.919891-29.819884-40.291842-42.327835a355.710611 355.710611 0 0 0-7.989969-8.265968c-80.299686-80.301686-184.015281-106.777583-231.655095-59.133769z" fill="#BE3D27" p-id="6961"></path><path d="M674.323366 528.837934c-34.235866-34.233866-89.733649-34.233866-123.967516 0-34.231866 34.229866-34.237866 89.733649-0.002 123.967516l14.261944 14.261944 1.667994-1.667993c33.797868 20.913918 78.717693 16.725935 108.041578-12.593951 29.323885-29.323885 33.503869-74.23771 12.593951-108.039578l1.667993-1.667993-14.263944-14.259945z" fill="#494A4A" p-id="6962"></path><path d="M626.599552 605.083636m-87.659657 0a87.659658 87.659658 0 1 0 175.319315 0 87.659658 87.659658 0 1 0-175.319315 0Z" fill="#323232" p-id="6963"></path><path d="M626.599552 605.083636m-68.081734 0a68.081734 68.081734 0 1 0 136.163468 0 68.081734 68.081734 0 1 0-136.163468 0Z" fill="#2A81C2" p-id="6964"></path><path d="M662.399413 640.879497c-24.495904 24.495904-63.001754 26.405897-89.70565 5.765977a68.383733 68.383733 0 0 0 5.763977 6.577974c26.587896 26.589896 69.697728 26.585896 96.285624 0s26.587896-69.695728-0.002-96.281624a68.099734 68.099734 0 0 0-6.577974-5.765977c20.639919 26.703896 18.731927 65.207745-5.763977 89.70365z" fill="#1669AD" p-id="6965"></path><path d="M306.494803 284.564888l9.323963-17.023933c-17.333932-9.401963-59.931766-32.983871-84.653669-68.355733l-5.02598 5.02398-0.223999 0.225999-5.023981 5.023981c35.371862 24.721903 58.95377 67.319737 68.353733 84.651669l17.025934-9.319963 0.063999 0.061999 0.078-0.143999 0.146-0.078-0.064-0.066z" fill="#BE3D27" p-id="6966"></path><path d="M207.29319 185.365276m-43.247831 0a43.247831 43.247831 0 1 0 86.495662 0 43.247831 43.247831 0 1 0-86.495662 0Z" fill="#BE3D27" p-id="6967"></path><path d="M202.575209 169.335339m-20.953918 0a20.953918 20.953918 0 1 0 41.907836 0 20.953918 20.953918 0 1 0-41.907836 0Z" fill="#E65439" p-id="6968"></path><path d="M726.543162 519.423971l1.759993 18.729927 17.501932 6.291975c7.275972 10.045961 13.957945 20.045922 19.777922 29.855884 28.13789-22.217913 76.949699 3.957985 91.959641 23.363908-54.031789-106.459584-114.271554-85.241667-130.999488-78.241694z" fill="#BE3D27" p-id="6969"></path><path d="M767.345003 593.033683c-10.655958-17.95393-24.113906-36.553857-39.041848-54.877785 16.727935-6.995973 63.91175-31.035879 129.239495 59.511767-15.009941-19.407924-62.059758-26.853895-90.197647-4.633982z" fill="#E65439" p-id="6970"></path><path d="M540.797888 705.169245l18.731926 1.761994 6.291976 17.499931c10.043961 7.277972 20.043922 13.957945 29.855883 19.777923-22.217913 28.13989 3.957985 76.949699 23.365909 91.959641-106.463584-54.031789-85.243667-114.273554-78.245694-130.999489z" fill="#BE3D27" p-id="6971"></path><path d="M614.4096 745.969086c-17.95593-10.655958-36.553857-24.113906-54.877786-39.039847-6.999973 16.725935-31.037879 63.90975 59.511768 129.237495-19.409924-15.009941-26.851895-62.059758-4.633982-90.197648z" fill="#E65439" p-id="6972"></path></svg>